<?xml version="1.0" encoding="utf-8"?>
<!-- Generator: Adobe Illustrator 18.0.0, SVG Export Plug-In . SVG Version: 6.00 Build 0)  -->
<!DOCTYPE svg PUBLIC "-//W3C//DTD SVG 1.1//EN" "http://www.w3.org/Graphics/SVG/1.1/DTD/svg11.dtd">
<svg version="1.1" id="Layer_1" xmlns="http://www.w3.org/2000/svg" xmlns:xlink="http://www.w3.org/1999/xlink" x="0px" y="0px"
	 viewBox="0 0 141.7 14.6" enable-background="new 0 0 141.7 14.6" xml:space="preserve">
<g>
	<defs>
		<rect id="SVGID_1_" y="0" width="141.7" height="14.6"/>
	</defs>
	<clipPath id="SVGID_2_">
		<use xlink:href="#SVGID_1_"  overflow="visible"/>
	</clipPath>
	<g clip-path="url(#SVGID_2_)">
		<text transform="matrix(1 0 0 1 0 11.3528)" fill="#D0AD67" font-family="'DINNextLTPro-Regular'" font-size="12.9868">L</text>
	</g>
	<g clip-path="url(#SVGID_2_)">
		<text transform="matrix(1 0 0 1 7.0776 11.3528)" fill="#D0AD67" font-family="'DINNextLTPro-Regular'" font-size="12.9868">I</text>
	</g>
	<g clip-path="url(#SVGID_2_)">
		<text transform="matrix(1 0 0 1 10.5322 11.3528)" fill="#D0AD67" font-family="'DINNextLTPro-Regular'" font-size="12.9868">V</text>
	</g>
	<g clip-path="url(#SVGID_2_)">
		<text transform="matrix(1 0 0 1 17.9609 11.3528)" fill="#D0AD67" font-family="'DINNextLTPro-Regular'" font-size="12.9868">E ON</text>
	</g>
	<path clip-path="url(#SVGID_2_)" fill="#FFFFFF" d="M116.1,0.4c-0.1-0.1-0.4-0.2-0.8-0.3c-1-0.3-7.7,0.1-8,0.1
		c-0.3,0-0.2,0.4-0.2,0.4l0,0c0.2,0,0.3,0,0.5,0c1.9,0,4.3,0.1,5.2,0.4c0.7,0.2,0.6,0.4,0.6,0.4L112.1,8c-0.4,1.7-2.3,6-7.7,6.2
		c-0.1-0.3-0.1-0.7-0.1-1.1c0-0.8,0.2-2.2,0.2-2.2c0.1-0.8,0.3-1.6,0.4-2.1l0.9-4.4c-0.9-1.8-3.3-2.4-4.4-2.3
		c-0.1,0-0.2,0.1-0.2,0.2l0,0L100.2,8c-0.3,1.2-0.7,6.6,5.3,6.6c5.4,0,8.3-4.4,8.9-6.6v0l1.9-7.2C116.3,0.7,116.3,0.6,116.1,0.4"/>
	<path clip-path="url(#SVGID_2_)" fill="#FFFFFF" d="M119.6,3.9c0,0.5-0.4,0.9-0.9,0.9c-0.5,0-0.9-0.4-0.9-0.9V2H117v1.9
		c0,1,0.8,1.7,1.7,1.7c1,0,1.7-0.8,1.7-1.7V2h-0.9V3.9z"/>
	<path clip-path="url(#SVGID_2_)" fill="#FFFFFF" d="M122.9,1.9c-1,0-1.7,0.8-1.7,1.7v1.9h0.9V3.7c0-0.5,0.4-0.9,0.9-0.9
		c0.5,0,0.9,0.4,0.9,0.9v1.9h0.9V3.7C124.7,2.7,123.9,1.9,122.9,1.9"/>
	<rect x="125.5" y="2" clip-path="url(#SVGID_2_)" fill="#FFFFFF" width="0.9" height="3.5"/>
	<polygon clip-path="url(#SVGID_2_)" fill="#FFFFFF" points="133.5,3.4 128.8,4.4 128.6,5.4 132.6,5.4 	"/>
	<path clip-path="url(#SVGID_2_)" fill="#FFFFFF" d="M136.8,8.6c0-0.2,0.3-0.3,0.7-0.3c0.8,0,1.7,0.2,2.4,0.8l1.8-1.8
		c-0.8-0.7-2-1.1-3.6-1.1c-2.3,0-3.8,1.2-4.2,2.8l0,0c-0.4,1.7,1.2,2.3,3,2.6c0.9,0.2,1.1,0.3,1.1,0.5l0,0c0,0.2-0.3,0.4-0.8,0.4
		c-1,0-2-0.3-2.8-1l-1.2,1.1l-1.5-6.4h-2.8l-4.4,6.9l1.4-6.9h-3.6l-1.8,2.9l-0.1-0.5c-0.5-2.3-2.6-2.4-2.9-2.4h-1.2l-1.7,8.3h2.8
		l0.8-4.1l0.5,3.4h1.5l1.9-3.4l-0.8,4.1h2.2h0.6h2.4l0.7-1.1h3l0.2,1.1h3.1l-0.1-0.5c0.8,0.4,1.9,0.7,3.1,0.7c2.3,0,4-1.1,4.3-2.8
		l0,0c0.3-1.7-1-2.3-3.1-2.6C137,9,136.8,8.8,136.8,8.6L136.8,8.6z"/>
	<path clip-path="url(#SVGID_2_)" fill="#D0AD67" d="M90.6,7.8V6.8c0-0.1,0-0.1,0.1-0.1H92c0,0,0.1,0,0.1-0.1V5.3
		c0-0.1,0-0.1,0.1-0.1h1.1c0.1,0,0.1,0,0.1,0.1v1.3c0,0,0,0.1,0.1,0.1h1.3c0.1,0,0.1,0,0.1,0.1v1.1c0,0.1,0,0.1-0.1,0.1h-1.3
		c0,0-0.1,0-0.1,0.1v1.3c0,0.1,0,0.1-0.1,0.1h-1.1c-0.1,0-0.1,0-0.1-0.1V8c0,0,0-0.1-0.1-0.1L90.6,7.8C90.6,7.9,90.6,7.9,90.6,7.8"
		/>
	<polygon clip-path="url(#SVGID_2_)" fill="#FFFFFF" points="85.9,14.6 85.8,14.6 85.8,13.9 85.8,13.9 85.7,14.6 85.5,14.6 
		85.4,13.9 85.4,13.9 85.4,14.6 85.2,14.6 85.2,13.8 85.4,13.8 85.6,14.4 85.6,14.4 85.7,13.8 85.9,13.8 	"/>
	<polygon clip-path="url(#SVGID_2_)" fill="#FFFFFF" points="84.9,14.6 84.8,14.6 84.8,13.9 84.5,13.9 84.5,13.8 85.1,13.8 
		85.1,13.9 84.9,13.9 	"/>
	<polygon clip-path="url(#SVGID_2_)" fill="#FFFFFF" points="78.5,5.8 78.5,14.6 84,14.6 84,0 78.7,0 75.6,3.1 75.6,4.9 79.4,4.9 	
		"/>
	<polygon clip-path="url(#SVGID_2_)" fill="#FFFFFF" points="54.7,14.6 54.7,9.6 53.9,8.8 59.6,8.8 59.6,5.7 54.7,5.7 54.7,3.1 
		59.6,3.1 62.7,0 49.9,0 49.9,14.6 	"/>
	<polygon clip-path="url(#SVGID_2_)" fill="#FFFFFF" points="61.7,7 63.5,8.9 68.4,8.9 68.7,9.2 68.7,11 68.3,11.4 63.7,11.4 
		61.2,13.9 61.2,14.6 71.4,14.6 73.5,12.5 73.5,7.5 71.7,5.7 66.8,5.7 66.5,5.4 66.5,3.5 66.9,3.1 72.2,3.1 73.4,2 73.4,0 70.3,0 
		65,0 61.7,3.3 	"/>
</g>
</svg>
