<?xml version="1.0" encoding="utf-8"?>
<!-- Generator: Adobe Illustrator 18.0.0, SVG Export Plug-In . SVG Version: 6.00 Build 0)  -->
<!DOCTYPE svg PUBLIC "-//W3C//DTD SVG 1.1//EN" "http://www.w3.org/Graphics/SVG/1.1/DTD/svg11.dtd">
<svg version="1.1" id="Layer_1" xmlns="http://www.w3.org/2000/svg" xmlns:xlink="http://www.w3.org/1999/xlink" x="0px" y="0px"
	 viewBox="0 0 49.6 49.6" enable-background="new 0 0 49.6 49.6" xml:space="preserve">
<g>
	<defs>
		<rect id="SVGID_1_" y="0" width="49.6" height="49.6"/>
	</defs>
	<clipPath id="SVGID_2_">
		<use xlink:href="#SVGID_1_"  overflow="visible"/>
	</clipPath>
	<path clip-path="url(#SVGID_2_)" fill="#FFFFFF" d="M47.6,18.6c-7.6,0.4-7.7,5.1-11.4,6l-2.7,0.6c-0.5,0.3-1.3,1-0.8,1.6
		c-1.4-1.6,0.1-2.8,0.1-2.8s-0.1-0.5-0.5-0.9c0,0,1.9-0.1,3.3-0.2C39.1,22.6,39.4,18.2,47.6,18.6c-7.8-1.2-9.3,2.7-13,3
		c-1.9,0.1-3.5,0.1-3.5,0.1S30,20.9,29,20.4l-5.1,0c0,0-1.4,0.5-2.4,1.5l-6,0c-5.4-0.2-6.9-5.5-13.5-3.3c6.9-1,6.7,4.3,13.4,4.9
		l7.4,0.4c0,0,0.6-0.3,0.3-1.3c0.4,0.1,1.6,1.8,0.1,3.2c-0.5,0.5-2.1,1.8-6.4,2.6c0,0,0.5-1.5,1.9-2.5c-0.5-0.1-1.1-0.1-1.7-0.2
		c-2.1,1.4-5.6,4-8.9,8c3-4.4,6.1-6.9,7.7-8.1c-0.5-0.1-0.9-0.1-1.3-0.2C8.2,24.5,8,18.6,2,18.5c-0.7-4.2-1-8.9-0.9-14.2
		c0,0,8.9-3.4,23.7-3.4c14.8,0,23.7,3.4,23.7,3.4C48.6,9.6,48.3,14.4,47.6,18.6 M29.8,26.8c-2-1.1-4.7-0.9-4.7-0.9
		c0.6-1.1,1.5-1.6,1.5-1.6C28,24.8,28.9,25.1,29.8,26.8 M28.7,22.1c-0.4-0.3-0.5-0.9,0.1-1.2c-0.2,0.6,1.1,0.8,1.7,1.6
		c0.7,1.1-0.3,1.7-0.2,2.4c-0.4-1.1-1.4-1.1-1.9-1.5c-0.5-0.4-0.5-0.8-0.2-1C28.3,22.9,29.2,22.5,28.7,22.1 M34.7,33l-1,0.1
		l-0.5,0.7l-2.9,0.2l-0.6-0.3c-2.3,4.5-0.6,7.9,2.1,9.8c-2.2,1.5-4.5,2.9-7,4.1c-3-1.5-5.8-3.2-8.2-5c2-6.8,6.5-9.8,6.5-9.8
		c-2.7-3.1,0.6-5.4,0.6-5.4c-0.6,1.2-0.7,3,0.7,4.2c1.4,1.2,2.8-0.1,3.9-0.1c1.1,0,2.4,0.8,2.4,0.8c1.1-0.4,1.3-1.3,1.3-1.3
		s-0.2-0.4-0.6-0.6c-0.6,0-0.8,0.4-0.8,0.4c-0.1-0.8,0.9-1.3,0.9-1.3c1,0,1.6,0.8,1.6,0.8l1.5,0c0.3-0.8,0.8-0.8,0.8-0.8
		c-0.5,1.1,0.5,1.7,0.5,1.7C35.7,32,34.7,33,34.7,33 M49.4,3.5C47.6,2.8,39.1,0,24.8,0C10.5,0,1.9,2.8,0.2,3.5C0.1,5.2,0,7,0,8.6
		c0,25.5,15.1,36.6,24.8,41c9.6-4.4,24.8-15.5,24.8-41C49.6,7,49.5,5.2,49.4,3.5"/>
	<path clip-path="url(#SVGID_2_)" fill="#FFFFFF" d="M23,17.4h-0.8c-0.4,0-0.5,0-0.5-0.2c0-0.2,0.1-0.2,0.5-0.2H23
		c0.4,0,0.5,0.1,0.5,0.2C23.5,17.3,23.4,17.4,23,17.4 M23.3,16.4h-1.4c-0.8,0-1.1,0.1-1.1,0.6v0.2c0,0.4,0.2,0.6,1.1,0.6h0.9
		c0.4,0,0.6-0.1,0.7-0.2v0.2c0,0.2-0.1,0.3-0.5,0.3h-2.3v0.5H23c1,0,1.4-0.2,1.4-0.8v-0.6C24.4,16.6,24,16.4,23.3,16.4"/>
	<path clip-path="url(#SVGID_2_)" fill="#FFFFFF" d="M27.5,18.1h-0.9c-0.4,0-0.5-0.1-0.5-0.2c0-0.2,0.1-0.2,0.5-0.2h0.9
		c0.4,0,0.5,0.1,0.5,0.2C27.9,18.1,27.8,18.1,27.5,18.1 M27.7,17.2h-0.9c-0.4,0-0.6,0.1-0.7,0.2v-0.2c0-0.2,0.1-0.2,0.5-0.2h2.2
		v-0.5h-2.2c-1,0-1.4,0.2-1.4,0.8v0.6c0,0.5,0.4,0.7,1.1,0.7h1.4c0.8,0,1.1-0.1,1.1-0.6v-0.2C28.8,17.4,28.7,17.2,27.7,17.2"/>
	<polygon clip-path="url(#SVGID_2_)" fill="#FFFFFF" points="4.6,15.3 6.2,15 6.2,10.5 7.6,10.2 7.6,8.6 6.2,8.9 6.2,6.9 7.6,6.6 
		7.6,5 4.6,5.7 	"/>
	<path clip-path="url(#SVGID_2_)" fill="#FFFFFF" d="M10.7,4.4C9,4.7,8.8,5,8.8,6.6v6.1c0,1.6,0.1,1.8,1.9,1.6c1.8-0.2,2-0.4,2-2
		v-1.9l-1.7,0.2v1.9c0,0.3-0.2,0.3-0.3,0.4c-0.1,0-0.3,0-0.3-0.3V6.5c0-0.2,0.1-0.4,0.3-0.4c0.2,0,0.3,0.1,0.3,0.3v1.2l1.7-0.2V6.2
		C12.7,4.4,12.5,4.2,10.7,4.4"/>
	<path clip-path="url(#SVGID_2_)" fill="#FFFFFF" d="M19.7,11.9c0,0.2,0,0.3-0.3,0.3l-0.4,0V5.4l0.4,0c0.2,0,0.2,0.1,0.3,0.4V11.9z
		 M21.3,12V5.6c0-1.9-0.3-2.1-1.7-2.1l-2.3,0.2v10.1l2.3-0.1C21.1,13.6,21.3,13.4,21.3,12"/>
	<path clip-path="url(#SVGID_2_)" fill="#FFFFFF" d="M24.2,10.3l0.4-4l0.4,4L24.2,10.3z M25.7,3.4l-2.2,0l-1,10.1l1.5,0l0.1-1.8
		l0.9,0l0.1,1.7l1.5,0L25.7,3.4z"/>
	<polygon clip-path="url(#SVGID_2_)" fill="#FFFFFF" points="29.5,12.2 29.5,3.5 27.9,3.5 27.9,13.6 30.7,13.7 30.7,12.2 	"/>
	<polygon clip-path="url(#SVGID_2_)" fill="#FFFFFF" points="33.5,12.4 33.5,3.8 31.9,3.7 31.9,13.7 34.7,14 34.7,12.5 	"/>
	<path clip-path="url(#SVGID_2_)" fill="#FFFFFF" d="M37.5,10.8L37.8,7l0.4,3.9L37.5,10.8z M36.7,4.2l-1,9.8l1.5,0.1l0.1-1.8
		l0.9,0.1l0.1,1.8l1.5,0.2l-1-10L36.7,4.2z"/>
	<path clip-path="url(#SVGID_2_)" fill="#FFFFFF" d="M43,5.1c-1.8-0.3-1.9-0.1-1.9,1.6v1.4c0,0.8,0.2,1.3,0.7,1.8l1.2,1
		c0.2,0.2,0.4,0.4,0.4,0.7v1.6c0,0.2-0.2,0.3-0.3,0.3c-0.1,0-0.3-0.1-0.3-0.4v-1.4l-1.6-0.2v1.4c0,1.6,0.2,1.8,1.9,2.1
		c1.8,0.2,2,0.1,2-1.5v-2c0-0.7-0.2-1.2-0.7-1.6l-1.2-1c-0.2-0.2-0.3-0.4-0.3-0.7V7c0-0.2,0.2-0.3,0.3-0.3c0.1,0,0.3,0.2,0.3,0.5v1
		L45,8.4v-1C45,5.8,44.7,5.4,43,5.1"/>
	<polygon clip-path="url(#SVGID_2_)" fill="#FFFFFF" points="25.1,39.4 25,37.2 23.4,39.4 20.8,39.4 22.5,40.9 21.2,43.3 23.7,41.8 
		25.4,43.2 25.2,40.9 27.7,39.4 	"/>
	<polygon clip-path="url(#SVGID_2_)" fill="#FFFFFF" points="39.5,41 40,41 40,42.5 40.2,42.5 40.2,41 40.7,41 40.7,40.9 39.5,40.9 
			"/>
	<polygon clip-path="url(#SVGID_2_)" fill="#FFFFFF" points="41.6,42.2 41.2,40.9 40.9,40.9 40.9,42.5 41.1,42.5 41.1,41.1 
		41.5,42.5 41.7,42.5 42.1,41.1 42.1,42.5 42.3,42.5 42.3,40.9 42,40.9 	"/>
</g>
</svg>
