<?xml version="1.0" encoding="utf-8"?>
<!-- Generator: Adobe Illustrator 18.0.0, SVG Export Plug-In . SVG Version: 6.00 Build 0)  -->
<!DOCTYPE svg PUBLIC "-//W3C//DTD SVG 1.1//EN" "http://www.w3.org/Graphics/SVG/1.1/DTD/svg11.dtd">
<svg version="1.1" id="Layer_1" xmlns="http://www.w3.org/2000/svg" xmlns:xlink="http://www.w3.org/1999/xlink" x="0px" y="0px"
	 viewBox="0 0 46.9 46.5" enable-background="new 0 0 46.9 46.5" xml:space="preserve">
<polygon fill="#FFFFFF" points="40.2,40.9 40.6,40.9 40.6,41.8 40.9,41.8 40.9,40.9 41.3,40.9 41.3,40.6 40.2,40.6 "/>
<polygon fill="#FFFFFF" points="42,41.4 41.8,40.6 41.4,40.6 41.4,41.8 41.7,41.8 41.7,41.1 41.9,41.8 42.2,41.8 42.4,41.1 
	42.4,41.8 42.7,41.8 42.7,40.6 42.3,40.6 "/>
<path fill="#FFFFFF" d="M29.2,32.5h1.8l0.2,0.6h1.3l-1.8-4.7h-1.2l-1.8,4.7h1.3L29.2,32.5z M30,30.1l0.5,1.4h-1L30,30.1z"/>
<g>
	<defs>
		<rect id="SVGID_1_" width="46.9" height="46.5"/>
	</defs>
	<clipPath id="SVGID_2_">
		<use xlink:href="#SVGID_1_"  overflow="visible"/>
	</clipPath>
	<path clip-path="url(#SVGID_2_)" fill="#FFFFFF" d="M38.4,33.2h1.9c1.5,0,2.2-0.3,2.2-2.3c0-2.1-0.7-2.3-2.2-2.3h-1.9V33.2z
		 M39.7,29.5h0.6c0.8,0,1,0.4,1,1.2V31c0,0.8-0.1,1.2-1,1.2h-0.6V29.5z"/>
	<path clip-path="url(#SVGID_2_)" fill="#FFFFFF" d="M4.2,28.5v4.7h1.2V32h0.8c1.2,0,1.8-0.3,1.8-1.7c0-1.5-0.6-1.7-1.8-1.7H4.2z
		 M6.9,30.2c0,0.7-0.3,0.7-0.6,0.7H5.4v-1.5h0.8C6.5,29.5,6.9,29.5,6.9,30.2"/>
	<polygon clip-path="url(#SVGID_2_)" fill="#FFFFFF" points="21.6,33.2 21.6,29.6 23.1,29.6 23.4,28.5 18.5,28.5 18.8,29.6 
		20.3,29.6 20.3,33.2 	"/>
	<path clip-path="url(#SVGID_2_)" fill="#FFFFFF" d="M13.4,30.8c0-2.1-0.9-2.4-2.3-2.4c-1.4,0-2.3,0.4-2.3,2.4
		c0,2.1,0.9,2.4,2.3,2.4C12.5,33.3,13.4,32.9,13.4,30.8 M12.1,31c0,0.9-0.2,1.2-1,1.2c-0.8,0-1-0.3-1-1.2v-0.4c0-0.9,0.2-1.2,1-1.2
		c0.8,0,1,0.3,1,1.2V31z"/>
	<path clip-path="url(#SVGID_2_)" fill="#FFFFFF" d="M23.5,13.2c-0.9,0-1.8,0-2.7,0.1c0.1,0.8,0.5,3.8,0.5,7.2c0,1.2,0,3.4-0.1,6.1
		h4.4c0-2.6-0.1-4.8-0.1-6.1c0-3.6,0.4-6.5,0.6-7.2C25.4,13.3,24.5,13.2,23.5,13.2"/>
	<path clip-path="url(#SVGID_2_)" fill="#FFFFFF" d="M23.5,11.8c9.4,0,13.9,3.2,13.9,3.2c3-6.6,0-12.2,0-12.2c-15,5-28,0-28,0
		C6.6,9,9.5,15,9.5,15S14.2,11.8,23.5,11.8"/>
	<polygon clip-path="url(#SVGID_2_)" fill="#FFFFFF" points="27.5,32.1 25.1,32.1 25.1,28.5 23.9,28.5 23.9,33.2 27.1,33.2 	"/>
	<path clip-path="url(#SVGID_2_)" fill="#FFFFFF" d="M15.5,31.9h0.7l0.9,1.3h1.4l-1.1-1.6c0.5-0.1,0.7-0.5,0.7-1.4
		c0-1.5-0.6-1.7-1.8-1.7h-2v4.7h1.2V31.9z M15.5,29.5h0.8c0.4,0,0.6,0.1,0.6,0.7c0,0.6-0.2,0.7-0.6,0.7h-0.8V29.5z"/>
	<polygon clip-path="url(#SVGID_2_)" fill="#FFFFFF" points="37.5,28.5 36.3,28.5 36.3,30.1 34.6,28.5 33.3,28.5 33.3,33.2 
		34.5,33.2 34.5,30.1 36.3,31.8 36.3,33.2 37.5,33.2 	"/>
	<path clip-path="url(#SVGID_2_)" fill="#FFFFFF" d="M20.9,39.2c-0.1,2.5-0.3,4.8-0.5,6.5c0,0,0,0,0,0s0.8,0.8,3.1,0.8h0h0
		c2.3,0,3.1-0.8,3.1-0.8v0c-0.2-1.7-0.4-4-0.5-6.5H20.9z"/>
	<polygon clip-path="url(#SVGID_2_)" fill="#FFFFFF" points="28.6,35.3 28.9,34.5 26.2,34.5 26.2,37.9 28.6,37.9 28.9,37.1 
		27.1,37.1 27.1,36.6 27.7,36.6 28,35.8 27.1,35.8 27.1,35.3 	"/>
	<path clip-path="url(#SVGID_2_)" fill="#FFFFFF" d="M35.4,37.2c-0.3,0-1-0.1-1.1-0.1l-0.1,0.7c0.1,0,0.7,0.1,1.2,0.1
		c1,0,1.4-0.3,1.4-1c0-0.8-0.2-0.9-1.2-1.1c-0.5-0.1-0.5-0.1-0.5-0.3c0-0.2,0.1-0.2,0.4-0.2c0.4,0,0.8,0.1,1.1,0.1l0.1-0.7
		c-0.2-0.1-0.8-0.1-1.2-0.1c-0.8,0-1.3,0.2-1.3,1c0,0.8,0.2,0.9,1.2,1.1c0.5,0.1,0.6,0.1,0.6,0.3C35.9,37.1,35.8,37.2,35.4,37.2"/>
	<path clip-path="url(#SVGID_2_)" fill="#FFFFFF" d="M13.4,2.4c0.3,0.1,0.5,0.1,0.8,0.2c0,0,0.1,0,0.1,0c0.1,0,0.3,0.1,0.4,0.1
		c0,0,0,0,0.1,0c0,0,0.1,0,0.1,0c2.6-1.2,5.5-1.8,8.6-1.8c3.1,0,6,0.6,8.6,1.8c0.4-0.1,0.8-0.2,1.3-0.3c0,0,0.1,0,0.1,0
		c0,0,0,0,0.1,0c1.1-0.3,2.2-0.6,3.3-0.9c-1,0.1-2.8,0.3-4.4,0.4c-2.8-1.2-5.8-1.9-9-1.9c-3.2,0-6.2,0.7-9,1.9
		c-1.7-0.2-3.4-0.3-4.4-0.4C10.3,1.5,11.5,1.9,13.4,2.4L13.4,2.4z"/>
	<path clip-path="url(#SVGID_2_)" fill="#FFFFFF" d="M27.5,13.8c0,0-0.1,0.7-0.2,1.7l11.2,11.2h2.1l-13-13.1L27.5,13.8z"/>
	<path clip-path="url(#SVGID_2_)" fill="#FFFFFF" d="M18.2,42.9c-4.5-1.2-8.5-3.8-11.3-7.3H4.5c-1.8-2.7-3-5.7-3.6-8.9h0l0-0.2
		L12,15.3c-1.2,0.5-1.8,0.9-1.8,0.9l-1.1,0.7l-7,6.9c0-0.5-0.1-1.1-0.1-1.6c0-5,1.7-9.6,4.6-13.2c0-0.2,0-0.5,0-0.7v0
		c0-0.2,0-0.5,0-0.7c0.1-1.7,0.5-3.5,1.4-5.3c-0.7,1.1-2,3.5-2.3,6.5C3,12.4,1.2,17.1,1.2,22.2c0,0.8,0,1.6,0.1,2.4L0,26l0,0l0,0
		l0.1,0.7C0.7,30.1,2,33.2,3.8,36l0.2,0.3h2.2c3,3.6,7,6.3,11.7,7.5c0.2,0.7,0.5,1.6,0.8,2.3c0-0.5,0.1-1.2,0.2-2.1
		c0-0.1,0-0.3,0-0.4c0,0,0-0.1,0-0.1c0-0.1,0-0.3,0-0.4C18.8,43,18.5,43,18.2,42.9C18.2,42.9,18.2,42.9,18.2,42.9"/>
	<path clip-path="url(#SVGID_2_)" fill="#FFFFFF" d="M24.8,36.9c0-0.6-0.3-0.7-0.6-0.8c0.3-0.1,0.5-0.3,0.5-0.8
		c0-0.7-0.4-0.8-1.2-0.8H22v3.3h1.6C24.5,37.9,24.8,37.6,24.8,36.9 M22.9,35.2h0.6c0.2,0,0.3,0,0.3,0.3c0,0.3-0.1,0.3-0.3,0.3h-0.6
		V35.2z M22.9,36.5h0.7c0.2,0,0.3,0.1,0.3,0.3c0,0.3-0.1,0.3-0.3,0.3h-0.7V36.5z"/>
	<polygon clip-path="url(#SVGID_2_)" fill="#FFFFFF" points="32.8,26.6 27.3,21.2 27.3,22.4 31.6,26.6 	"/>
	<polygon clip-path="url(#SVGID_2_)" fill="#FFFFFF" points="20.5,37.9 20.5,34.5 19.4,34.5 18.7,35.9 18,34.5 16.9,34.5 16.9,37.9 
		17.7,37.9 17.7,35.9 18.3,36.9 18.3,37.9 19.1,37.9 19.1,36.9 19.6,35.9 19.6,37.9 	"/>
	<path clip-path="url(#SVGID_2_)" fill="#FFFFFF" d="M30.9,37h0.5l0.6,0.9h1l-0.8-1.1c0.3-0.1,0.5-0.4,0.5-1c0-1.1-0.4-1.2-1.3-1.2
		H30v3.3h0.9V37z M30.9,35.2h0.6c0.3,0,0.4,0.1,0.4,0.5c0,0.4-0.1,0.5-0.4,0.5h-0.6V35.2z"/>
	<rect x="14.5" y="34.5" clip-path="url(#SVGID_2_)" fill="#FFFFFF" width="0.9" height="3.3"/>
	<path clip-path="url(#SVGID_2_)" fill="#FFFFFF" d="M19.8,22.4c0-0.5,0-0.9,0-1.2l-5.4,5.4h1.2L19.8,22.4z"/>
	<polygon clip-path="url(#SVGID_2_)" fill="#FFFFFF" points="12.2,37.9 12.2,35.3 13.3,35.3 13.5,34.5 10,34.5 10.2,35.3 11.3,35.3 
		11.3,37.9 	"/>
	<path clip-path="url(#SVGID_2_)" fill="#FFFFFF" d="M46.8,26L46.8,26l-1.3-1.3c0.1-0.8,0.1-1.6,0.1-2.5c0-5.1-1.7-9.7-4.5-13.5
		c-0.3-3.1-1.8-5.7-2.4-6.7l0,0.1c0.1,0.1,1.2,2.3,1.4,5.5c0,0.2,0,0.5,0,0.7c0,0,0,0,0,0c0,0.2,0,0.5,0,0.7
		c2.9,3.6,4.6,8.2,4.6,13.2c0,0.6,0,1.1-0.1,1.7l-6.8-6.7l-1.6-1c0,0-0.5-0.3-1.5-0.8l11.2,11L46,26.9h0c-0.1,0.7-0.3,1.3-0.5,1.9
		c-0.7,2.4-1.7,4.7-3.1,6.7h-2.4c-2.8,3.5-6.7,6.1-11.2,7.3c0,0-0.1,0-0.1,0c-0.3,0.1-0.6,0.1-0.8,0.2c0,0,0,0,0,0
		c0,0.2,0,0.3,0,0.5c0,0.2,0,0.3,0,0.5c0.1,0.8,0.2,1.4,0.3,1.9c0.3-0.7,0.5-1.5,0.7-2.2c4.7-1.2,8.7-3.8,11.7-7.5h2.2l0.2-0.3
		c1.4-2.1,2.5-4.5,3.2-6.9c0.2-0.6,0.3-1.3,0.5-2l0-0.1c0-0.1,0-0.2,0-0.2L46.8,26L46.8,26z"/>
	<path clip-path="url(#SVGID_2_)" fill="#FFFFFF" d="M19.3,13.8L6.5,26.6h2.2l10.9-10.9C19.4,14.7,19.3,14,19.3,13.8"/>
</g>
</svg>
