<?xml version="1.0" encoding="utf-8"?>
<!-- Generator: Adobe Illustrator 18.0.0, SVG Export Plug-In . SVG Version: 6.00 Build 0)  -->
<!DOCTYPE svg PUBLIC "-//W3C//DTD SVG 1.1//EN" "http://www.w3.org/Graphics/SVG/1.1/DTD/svg11.dtd">
<svg version="1.1" id="Layer_1" xmlns="http://www.w3.org/2000/svg" xmlns:xlink="http://www.w3.org/1999/xlink" x="0px" y="0px"
	 viewBox="0 0 150.5 125.8" enable-background="new 0 0 150.5 125.8" xml:space="preserve">
<g>
	<defs>
		<rect id="SVGID_1_" y="95.3" width="57.5" height="0.6"/>
	</defs>
	<clipPath id="SVGID_2_">
		<use xlink:href="#SVGID_1_"  overflow="visible"/>
	</clipPath>
	
		<radialGradient id="SVGID_3_" cx="-1.547944e-06" cy="125.816" r="1" gradientTransform="matrix(20.331 0 0 -20.331 28.751 2653.5671)" gradientUnits="userSpaceOnUse">
		<stop  offset="0" style="stop-color:#FFFFFF"/>
		<stop  offset="2.876377e-02" style="stop-color:#FAF6EF"/>
		<stop  offset="0.1448" style="stop-color:#EDE0C7"/>
		<stop  offset="0.266" style="stop-color:#E4CFA7"/>
		<stop  offset="0.3914" style="stop-color:#DCC38F"/>
		<stop  offset="0.5222" style="stop-color:#D7B97D"/>
		<stop  offset="0.6606" style="stop-color:#D3B271"/>
		<stop  offset="0.8118" style="stop-color:#D0AE6A"/>
		<stop  offset="1" style="stop-color:#D0AD67"/>
	</radialGradient>
	<rect y="95.3" clip-path="url(#SVGID_2_)" fill="url(#SVGID_3_)" width="57.5" height="0.6"/>
</g>
<g>
	<defs>
		<rect id="SVGID_4_" y="125.3" width="57.5" height="0.5"/>
	</defs>
	<clipPath id="SVGID_5_">
		<use xlink:href="#SVGID_4_"  overflow="visible"/>
	</clipPath>
	
		<radialGradient id="SVGID_6_" cx="-1.547947e-06" cy="125.816" r="1" gradientTransform="matrix(20.331 0 0 -20.331 28.751 2683.5042)" gradientUnits="userSpaceOnUse">
		<stop  offset="0" style="stop-color:#FFFFFF"/>
		<stop  offset="2.876377e-02" style="stop-color:#FAF6EF"/>
		<stop  offset="0.1448" style="stop-color:#EDE0C7"/>
		<stop  offset="0.266" style="stop-color:#E4CFA7"/>
		<stop  offset="0.3914" style="stop-color:#DCC38F"/>
		<stop  offset="0.5222" style="stop-color:#D7B97D"/>
		<stop  offset="0.6606" style="stop-color:#D3B271"/>
		<stop  offset="0.8118" style="stop-color:#D0AE6A"/>
		<stop  offset="1" style="stop-color:#D0AD67"/>
	</radialGradient>
	<rect x="0" y="125.3" clip-path="url(#SVGID_5_)" fill="url(#SVGID_6_)" width="57.5" height="0.5"/>
</g>
<g>
	<defs>
		<path id="SVGID_7_" d="M15.7,100c-0.2,0-0.4,0.1-0.5,0.3l-4.8,11h-0.1l-4.9-11C5.3,100,5.1,100,4.9,100H0.3
			c-0.2,0-0.3,0.1-0.3,0.3v20.5c0,0.2,0.1,0.3,0.3,0.3h4.3c0.2,0,0.3-0.1,0.3-0.3v-10.9h0.2l3.4,7.9c0.2,0.3,0.4,0.4,0.6,0.4h2.4
			c0.2,0,0.4-0.1,0.6-0.4l3.4-7.9h0.2v10.9c0,0.2,0.1,0.3,0.3,0.3h4.3c0.2,0,0.3-0.1,0.3-0.3v-20.5c0-0.2-0.1-0.3-0.3-0.3H15.7z
			 M24.3,100c-0.2,0-0.3,0.1-0.3,0.3v20.5c0,0.2,0.1,0.3,0.3,0.3h14.3c0.2,0,0.3-0.1,0.3-0.3v-4.2c0-0.2-0.1-0.3-0.3-0.3h-9
			c-0.1,0-0.2-0.1-0.2-0.2v-15.8c0-0.2-0.1-0.3-0.3-0.3H24.3z M41,106.2c0,3.9,2.5,6,7.1,6.7l1.1,0.2c2.1,0.3,2.7,0.9,2.7,1.8
			c0,1.2-1,2-3,2c-2.1,0-4.1-1-5.4-2.1c-0.1-0.1-0.3-0.1-0.4,0l-2.8,3.3c-0.2,0.2-0.1,0.4,0,0.5c1.6,1.6,5.1,3,8.5,3
			c5.7,0,8.6-2.9,8.6-6.8c0-4-2.4-6.1-7-6.7l-1.1-0.2c-2-0.2-2.7-0.8-2.7-1.8c0-1,0.8-1.8,2.3-1.8c1.7,0,3.3,0.6,4.8,1.6
			c0.2,0.1,0.3,0.1,0.4-0.1l2.3-3.4c0.1-0.2,0.1-0.3-0.1-0.5c-1.9-1.4-4.6-2.3-7.6-2.3C44.1,99.6,41,102.2,41,106.2"/>
	</defs>
	<clipPath id="SVGID_8_">
		<use xlink:href="#SVGID_7_"  overflow="visible"/>
	</clipPath>
	
		<linearGradient id="SVGID_9_" gradientUnits="userSpaceOnUse" x1="-2.186583e-05" y1="125.816" x2="1" y2="125.816" gradientTransform="matrix(0 21.8946 21.8946 0 -2725.9453 99.5965)">
		<stop  offset="0" style="stop-color:#DCE4EA"/>
		<stop  offset="0.6" style="stop-color:#DCE4EA"/>
		<stop  offset="0.6571" style="stop-color:#D1DAE1"/>
		<stop  offset="0.7489" style="stop-color:#B8C3CB"/>
		<stop  offset="0.8639" style="stop-color:#93A3AE"/>
		<stop  offset="0.9964" style="stop-color:#67808B"/>
		<stop  offset="1" style="stop-color:#657F8A"/>
	</linearGradient>
	<rect y="99.6" clip-path="url(#SVGID_8_)" fill="url(#SVGID_9_)" width="57.5" height="21.9"/>
</g>
<g>
	<defs>
		<path id="SVGID_10_" d="M125.4,100c-0.2,0-0.3,0.1-0.3,0.3v13c0,2.1-1.1,3.3-2.9,3.3c-1.8,0-3-1.2-3-3.3v-13
			c0-0.2-0.1-0.3-0.3-0.3h-4.9c-0.2,0-0.3,0.1-0.3,0.3V113c0,5.6,3.3,8.6,8.4,8.6c5,0,8.4-2.9,8.4-8.6v-12.7c0-0.2-0.1-0.3-0.3-0.3
			H125.4z M139.4,109.3v-4.4c0-0.1,0.1-0.2,0.2-0.2h2.8c1.7,0,2.7,0.9,2.7,2.4c0,1.5-1,2.4-2.7,2.4h-2.8
			C139.5,109.5,139.4,109.4,139.4,109.3 M134.2,100c-0.2,0-0.3,0.1-0.3,0.3v20.5c0,0.2,0.1,0.3,0.3,0.3h4.9c0.2,0,0.3-0.1,0.3-0.3
			v-6.6c0-0.1,0.1-0.2,0.2-0.2h3.1c5.1,0,7.8-3,7.8-7.1c0-4.1-2.7-7-7.8-7H134.2z M96.1,104.9c-0.5,1.4-0.6,2.6-0.6,5.7
			c0,3.1,0.2,4.3,0.6,5.7c1.1,3.5,3.9,5.2,7.7,5.2c3.7,0,6.4-1.8,7.6-4.8c0.1-0.2,0.1-0.3-0.2-0.4l-4.1-1.8c-0.2-0.1-0.3,0-0.4,0.2
			c-0.6,1.2-1.3,2-2.8,2c-1.3,0-2.2-0.7-2.5-1.8c-0.2-0.7-0.3-1.3-0.3-4.2c0-2.9,0.1-3.6,0.3-4.2c0.4-1.2,1.2-1.8,2.5-1.8
			c1.4,0,2.2,0.7,2.8,2c0.1,0.2,0.2,0.3,0.4,0.2l4.1-1.8c0.2-0.1,0.2-0.2,0.2-0.4c-1.2-3-3.9-4.8-7.6-4.8
			C99.9,99.7,97.2,101.4,96.1,104.9"/>
	</defs>
	<clipPath id="SVGID_11_">
		<use xlink:href="#SVGID_10_"  overflow="visible"/>
	</clipPath>
	
		<linearGradient id="SVGID_12_" gradientUnits="userSpaceOnUse" x1="9.321175e-06" y1="125.816" x2="1" y2="125.816" gradientTransform="matrix(0 21.8949 21.8949 0 -2631.7253 99.6688)">
		<stop  offset="0" style="stop-color:#DCE4EA"/>
		<stop  offset="0.6" style="stop-color:#DCE4EA"/>
		<stop  offset="0.6571" style="stop-color:#D1DAE1"/>
		<stop  offset="0.7489" style="stop-color:#B8C3CB"/>
		<stop  offset="0.8639" style="stop-color:#93A3AE"/>
		<stop  offset="0.9964" style="stop-color:#67808B"/>
		<stop  offset="1" style="stop-color:#657F8A"/>
	</linearGradient>
	<rect x="95.5" y="99.7" clip-path="url(#SVGID_11_)" fill="url(#SVGID_12_)" width="55.1" height="21.9"/>
</g>
<g>
	<defs>
		<rect id="SVGID_13_" x="95.5" y="95.3" width="55.1" height="0.6"/>
	</defs>
	<clipPath id="SVGID_14_">
		<use xlink:href="#SVGID_13_"  overflow="visible"/>
	</clipPath>
	
		<radialGradient id="SVGID_15_" cx="1.312462e-05" cy="125.816" r="1" gradientTransform="matrix(19.4737 0 0 -19.4737 123.0052 2545.7026)" gradientUnits="userSpaceOnUse">
		<stop  offset="0" style="stop-color:#FFFFFF"/>
		<stop  offset="2.876377e-02" style="stop-color:#FAF6EF"/>
		<stop  offset="0.1448" style="stop-color:#EDE0C7"/>
		<stop  offset="0.266" style="stop-color:#E4CFA7"/>
		<stop  offset="0.3914" style="stop-color:#DCC38F"/>
		<stop  offset="0.5222" style="stop-color:#D7B97D"/>
		<stop  offset="0.6606" style="stop-color:#D3B271"/>
		<stop  offset="0.8118" style="stop-color:#D0AE6A"/>
		<stop  offset="1" style="stop-color:#D0AD67"/>
	</radialGradient>
	<rect x="95.5" y="95.3" clip-path="url(#SVGID_14_)" fill="url(#SVGID_15_)" width="55.1" height="0.6"/>
</g>
<g>
	<defs>
		<rect id="SVGID_16_" x="95.5" y="125.3" width="55.1" height="0.6"/>
	</defs>
	<clipPath id="SVGID_17_">
		<use xlink:href="#SVGID_16_"  overflow="visible"/>
	</clipPath>
	
		<radialGradient id="SVGID_18_" cx="1.312462e-05" cy="125.816" r="1" gradientTransform="matrix(19.4737 0 0 -19.4737 123.0052 2575.6382)" gradientUnits="userSpaceOnUse">
		<stop  offset="0" style="stop-color:#FFFFFF"/>
		<stop  offset="2.876377e-02" style="stop-color:#FAF6EF"/>
		<stop  offset="0.1448" style="stop-color:#EDE0C7"/>
		<stop  offset="0.266" style="stop-color:#E4CFA7"/>
		<stop  offset="0.3914" style="stop-color:#DCC38F"/>
		<stop  offset="0.5222" style="stop-color:#D7B97D"/>
		<stop  offset="0.6606" style="stop-color:#D3B271"/>
		<stop  offset="0.8118" style="stop-color:#D0AE6A"/>
		<stop  offset="1" style="stop-color:#D0AD67"/>
	</radialGradient>
	<rect x="95.5" y="125.3" clip-path="url(#SVGID_17_)" fill="url(#SVGID_18_)" width="55.1" height="0.6"/>
</g>
<g>
	<defs>
		<path id="SVGID_19_" d="M66.7,116.2L66.7,116.2l0.3-0.1l0.5,0.5l0.1-0.1l-0.5-0.5l0.2-0.2l-0.1-0.1L66.7,116.2z M67.7,115.2
			l0.2,0.5l-0.5-0.2l-0.2,0.2l0.6,0.6l0.1-0.1l-0.4-0.4l0,0l0.6,0.3l0.1-0.1l-0.3-0.6l0,0l0.4,0.4l0.1-0.1l-0.6-0.6L67.7,115.2z
			 M69.6,109.6h-1.1l0.9,0.7l-0.3,1.1l0.9-0.7l0.9,0.7l-0.3-1.1l0.9-0.7h-1.1l-0.3-1.1L69.6,109.6z M67,106.1h-1.1l0.9,0.7l-0.3,1.1
			l0.9-0.7l0.9,0.7l-0.3-1.1l0.9-0.7h-1.1l-0.3-1.1L67,106.1z M72.2,106.1h-1.1l0.9,0.7l-0.3,1.1l0.9-0.7l0.9,0.7l-0.3-1.1l0.9-0.7
			h-1.1l-0.3-1.1L72.2,106.1z M68.9,97.9c-0.1,0-0.1,0-0.1,0.1l-1.4,3.2h0L65.9,98c0-0.1-0.1-0.1-0.1-0.1h-1c-0.1,0-0.1,0-0.1,0.1
			v5.4c0,0,0,0.1,0.1,0.1h0.9c0,0,0.1,0,0.1-0.1v-3.1h0l1,2.4c0,0.1,0.1,0.1,0.2,0.1h0.6c0.1,0,0.1,0,0.2-0.1l1-2.4h0v3.1
			c0,0,0,0.1,0.1,0.1h0.9c0,0,0.1,0,0.1-0.1V98c0,0,0-0.1-0.1-0.1H68.9z M70.8,97.9C70.7,97.9,70.7,97.9,70.8,97.9l-0.1,5.5
			c0,0,0,0.1,0.1,0.1h3.6c0,0,0.1,0,0.1-0.1v-0.9c0,0,0-0.1-0.1-0.1h-2.5c0,0,0,0,0,0V98c0,0,0-0.1-0.1-0.1H70.8z M75.1,99.5
			c0,1,0.6,1.5,1.8,1.7l0.3,0c0.7,0.1,0.9,0.3,0.9,0.6c0,0.4-0.3,0.7-0.9,0.7c-0.6,0-1.1-0.3-1.5-0.6c0,0-0.1,0-0.1,0l-0.6,0.7
			c0,0,0,0.1,0,0.1c0.4,0.4,1.3,0.8,2.2,0.8c1.4,0,2.2-0.7,2.2-1.8c0-1-0.6-1.5-1.8-1.7l-0.3,0c-0.6-0.1-0.9-0.3-0.9-0.6
			c0-0.4,0.3-0.6,0.7-0.6c0.5,0,0.9,0.1,1.3,0.4c0,0,0.1,0,0.1,0l0.5-0.7c0-0.1,0-0.1,0-0.1c-0.5-0.4-1.2-0.6-1.9-0.6
			C75.9,97.8,75.1,98.5,75.1,99.5 M71.4,122c-1.2-0.9-2.4-1.9-3.4-3l21.5-21.5c0,3,0,9.3,0,9.3c0,2-0.3,4.1-1,6
			c-0.6,1.9-1.6,3.6-2.7,5.2c-1.2,1.6-2.6,2.9-4.2,4c-1.6,1.1-3.3,1.9-5.1,2.5C74.6,123.9,72.9,123.1,71.4,122 M67.2,118
			c-1.2-1.6-2.1-3.3-2.7-5.2c-0.7-1.9-1-3.9-1-6c0-0.1,0-7.9,0-10.2h25.1L67.2,118C67.2,118,67.2,118,67.2,118 M62.2,95.3V96
			c0,0,0,10.8,0,10.9c0,2.2,0.4,4.3,1.1,6.4c0.7,2,1.7,3.8,2.9,5.5c0,0.1,0.1,0.1,0.1,0.2l-3.8,3.8l0.9,0.9l3.7-3.7
			c1,1.2,2.2,2.2,3.5,3.1c1.7,1.2,3.6,2.1,5.6,2.7l0.2,0.1l0.2-0.1c2-0.6,3.9-1.5,5.6-2.7c1.7-1.2,3.2-2.6,4.5-4.3
			c1.3-1.7,2.3-3.5,2.9-5.5c0.7-2.1,1.1-4.2,1.1-6.4c0-0.1,0-10.9,0-10.9v-0.6H62.2z"/>
	</defs>
	<clipPath id="SVGID_20_">
		<use xlink:href="#SVGID_19_"  overflow="visible"/>
	</clipPath>
	
		<radialGradient id="SVGID_21_" cx="-9.680331e-06" cy="125.816" r="1" gradientTransform="matrix(14.7775 0 0 -14.7775 76.4586 1969.8156)" gradientUnits="userSpaceOnUse">
		<stop  offset="0" style="stop-color:#FFFFFF"/>
		<stop  offset="0.1105" style="stop-color:#FBF8F3"/>
		<stop  offset="0.2798" style="stop-color:#F4EDDF"/>
		<stop  offset="0.487" style="stop-color:#EBDCC0"/>
		<stop  offset="0.724" style="stop-color:#DFC798"/>
		<stop  offset="0.9831" style="stop-color:#D1AF6A"/>
		<stop  offset="1" style="stop-color:#D0AD67"/>
	</radialGradient>
	<rect x="62.2" y="95.3" clip-path="url(#SVGID_20_)" fill="url(#SVGID_21_)" width="28.6" height="30.5"/>
</g>
<g>
	<defs>
		<path id="SVGID_22_" d="M92.7,18.7L92.7,18.7L92.7,18.7z"/>
	</defs>
	<clipPath id="SVGID_23_">
		<use xlink:href="#SVGID_22_"  overflow="visible"/>
	</clipPath>
	
		<linearGradient id="SVGID_24_" gradientUnits="userSpaceOnUse" x1="0.6243" y1="125.3656" x2="0.6243" y2="125.3656" gradientTransform="matrix(53.6472 0 0 53.6472 59.1677 -6706.7983)">
		<stop  offset="0" style="stop-color:#DDE4EA"/>
		<stop  offset="0.23" style="stop-color:#C1CAD2"/>
		<stop  offset="0.7139" style="stop-color:#8698A3"/>
		<stop  offset="1" style="stop-color:#667E8A"/>
	</linearGradient>
	<polygon clip-path="url(#SVGID_23_)" fill="url(#SVGID_24_)" points="92.7,18.7 92.7,18.7 92.7,18.7 	"/>
</g>
<g>
	<defs>
		<path id="SVGID_25_" d="M106.9,27.5l-9.2,16.3l7.4-18c0.4-0.8,4.7-10.6,2.9-18c-1.1,0.2-2.2,0.5-3.3,1c1.5,6.2-2.6,15.3-2.7,15.4
			L84.8,65.9c0.5,0.2,1,0.5,1.6,0.8c23.6-38,23.9-37.7,25.7-42.5c1.5-3.8,3-9.2,2.3-13.7c-1-1.4-2.1-2.3-3.6-2.7
			c-0.4-0.1-0.9-0.2-1.3-0.2C114.3,13.2,107.1,27,106.9,27.5"/>
	</defs>
	<clipPath id="SVGID_26_">
		<use xlink:href="#SVGID_25_"  overflow="visible"/>
	</clipPath>
	
		<linearGradient id="SVGID_27_" gradientUnits="userSpaceOnUse" x1="0" y1="125.9108" x2="1" y2="125.9108" gradientTransform="matrix(-14.8457 25.7944 25.7944 14.8457 -3138.1965 -1848.7164)">
		<stop  offset="0" style="stop-color:#685830"/>
		<stop  offset="0.1124" style="stop-color:#685830"/>
		<stop  offset="0.2355" style="stop-color:#7E6B3E"/>
		<stop  offset="0.4051" style="stop-color:#9B834D"/>
		<stop  offset="0.5705" style="stop-color:#B19558"/>
		<stop  offset="0.7282" style="stop-color:#C1A160"/>
		<stop  offset="0.875" style="stop-color:#CAA965"/>
		<stop  offset="1" style="stop-color:#D0AD67"/>
	</linearGradient>
	<polygon clip-path="url(#SVGID_26_)" fill="url(#SVGID_27_)" points="140.7,22.4 107.6,79.9 59.3,52.1 92.4,-5.4 	"/>
</g>
<g>
	<defs>
		<path id="SVGID_28_" d="M53.6,0c-1.2,0-2.3,0.3-3.3,0.8C50,1,49.8,1.1,49.5,1.3c-2.6,2.2-4.2,5.3-4.6,9.2
			c-0.1,0.6-0.1,1.2-0.1,1.8c0.2,6.4,3,12.9,3.3,13.5L56,45.1l-9.7-17.5c-0.2-0.5-3.5-7.3-3.5-13.1c-0.1-1.3-0.1-2.7,0.1-4.2
			c0.3-2.4,0.9-4.6,2-6.5c-0.4,0.2-0.8,0.4-1.2,0.7c-6.2,4.6-4.4,13.9-2.4,19.8c1.8,5.2,2.1,4.9,25.2,42.8c0.7-0.4,1.4-0.8,1.9-1
			L51.2,24.2l0-0.1c0,0-1.1-2.5-2-5.7c-0.1-0.5-0.2-0.9-0.3-1.4c-1.4-4.8-1-8.9,1-12c1.4-2.1,3.5-3.7,6.3-4.7
			C55.3,0.1,54.4,0,53.6,0z"/>
	</defs>
	<clipPath id="SVGID_29_">
		<use xlink:href="#SVGID_28_"  overflow="visible"/>
	</clipPath>
	
		<linearGradient id="SVGID_30_" gradientUnits="userSpaceOnUse" x1="0" y1="125.9604" x2="1" y2="125.9604" gradientTransform="matrix(-11.0796 -26.8241 -26.8241 11.0796 3441.4937 -1338.2002)">
		<stop  offset="0" style="stop-color:#897443"/>
		<stop  offset="1" style="stop-color:#D0AD67"/>
	</linearGradient>
	<polygon clip-path="url(#SVGID_29_)" fill="url(#SVGID_30_)" points="41.9,77.9 13.7,9.8 63.8,-10.9 92,57.2 	"/>
</g>
<g>
	<defs>
		<path id="SVGID_31_" d="M99.6,4.6c-3.1,1.9-6.1,4.6-8.2,6.7c-3,3.5-11.3,12.7-14.5,16.4c2,0.1,4.5-0.4,6.7-2.5
			c3.2-3.1,6.6-7,8.6-9.4c0,0,0,0,0,0c0.1-0.1,0.2-0.2,0.3-0.3c3.2-3.6,7.2-7.1,10.7-8.6c2.4-1.2,5.4-2,8.1-1.3
			c0.5,0.1,1,0.3,1.5,0.6c-0.6-0.9-1.3-1.7-2.3-2.4c-0.9-0.7-1.9-1.1-2.9-1.2c-0.3,0-0.5,0-0.8,0C104.3,2.4,101.8,3.3,99.6,4.6
			 M87.5,6.9H60.9l1.7,3.5c-1.5,2.6-5,11.5,0.5,29.5c4.5,14.7,7.3,23.3,8.7,27.4h0l4.1,12.2l-2.5,0l-4.2-11.1c-5.9,3-10,9.7-10,17.4
			h34.6c0-8.8-5.3-16.2-12.6-18.4c1.4-4.1,4.3-12.7,8.8-27.4c2.9-9.4,3.3-16.3,2.8-21.2c0,0.1-5.4,5.7-7.8,8.1
			c-4.3,4.3-11.5,2.4-11.5,2.1C75,27.1,86.8,13.3,90,9.5l0-0.1c0.1-0.1,0.3-0.3,0.4-0.4c0.1-0.1,0.2-0.3,0.3-0.4l0,0
			c1.1-1.2,2.5-2.5,4.2-3.8c2.6-2,5.2-3.4,7.7-4.2c-1-0.5-2-0.7-3.1-0.7C96.2,0,92.2,2.3,87.5,6.9"/>
	</defs>
	<clipPath id="SVGID_32_">
		<use xlink:href="#SVGID_31_"  overflow="visible"/>
	</clipPath>
	
		<linearGradient id="SVGID_33_" gradientUnits="userSpaceOnUse" x1="0" y1="125.816" x2="1" y2="125.816" gradientTransform="matrix(53.6472 0 0 -53.6472 59.1675 6792.5508)">
		<stop  offset="0" style="stop-color:#DCE4EA"/>
		<stop  offset="0.2" style="stop-color:#DCE4EA"/>
		<stop  offset="0.3497" style="stop-color:#C2CCD4"/>
		<stop  offset="0.6591" style="stop-color:#8D9EA9"/>
		<stop  offset="0.9" style="stop-color:#657F8A"/>
		<stop  offset="1" style="stop-color:#657F8A"/>
	</linearGradient>
	<rect x="57.6" y="0" clip-path="url(#SVGID_32_)" fill="url(#SVGID_33_)" width="55.3" height="85.7"/>
</g>
<g>
	<defs>
		<polygon id="SVGID_34_" points="75.6,12.8 72.6,12.8 75,14.5 74.1,17.3 76.5,15.6 78.8,17.3 77.9,14.5 80.3,12.8 77.4,12.8 
			76.5,10 		"/>
	</defs>
	<clipPath id="SVGID_35_">
		<use xlink:href="#SVGID_34_"  overflow="visible"/>
	</clipPath>
	
		<linearGradient id="SVGID_36_" gradientUnits="userSpaceOnUse" x1="0" y1="125.7543" x2="1" y2="125.7543" gradientTransform="matrix(-5.3332 -5.3332 -5.3332 5.3332 750.1315 -654.0126)">
		<stop  offset="0" style="stop-color:#4F4220"/>
		<stop  offset="5.488414e-02" style="stop-color:#5F502B"/>
		<stop  offset="0.168" style="stop-color:#7B683C"/>
		<stop  offset="0.2864" style="stop-color:#947D4A"/>
		<stop  offset="0.4086" style="stop-color:#AA8F55"/>
		<stop  offset="0.5359" style="stop-color:#B99B5D"/>
		<stop  offset="0.6706" style="stop-color:#C5A462"/>
		<stop  offset="0.8176" style="stop-color:#CCAA66"/>
		<stop  offset="1" style="stop-color:#D0AD67"/>
	</linearGradient>
	<polygon clip-path="url(#SVGID_35_)" fill="url(#SVGID_36_)" points="76.5,21.1 69,13.7 76.5,6.2 83.9,13.7 	"/>
</g>
</svg>
